<svg width="16" height="16" viewBox="0 0 16 16" fill="none" xmlns="http://www.w3.org/2000/svg">
<path fill-rule="evenodd" clip-rule="evenodd" d="M3.52851 11.8047C3.26816 11.5444 3.26816 11.1223 3.52851 10.8619L6.39044 8L3.52851 5.13807C3.26816 4.87772 3.26816 4.45561 3.52851 4.19526C3.78886 3.93491 4.21097 3.93491 4.47132 4.19526L7.80466 7.5286C8.06501 7.78895 8.06501 8.21105 7.80466 8.4714L4.47132 11.8047C4.21097 12.0651 3.78886 12.0651 3.52851 11.8047ZM8.19518 10.8619L11.0571 8L8.19518 5.13807C7.93483 4.87772 7.93483 4.45561 8.19518 4.19526C8.45553 3.93491 8.87764 3.93491 9.13799 4.19526L12.4713 7.5286C12.7317 7.78895 12.7317 8.21105 12.4713 8.4714L9.13799 11.8047C8.87764 12.0651 8.45553 12.0651 8.19518 11.8047C7.93483 11.5444 7.93483 11.1223 8.19518 10.8619Z" fill="black"/>
<mask id="mask0" mask-type="alpha" maskUnits="userSpaceOnUse" x="3" y="4" width="10" height="8">
<path fill-rule="evenodd" clip-rule="evenodd" d="M3.52851 11.8047C3.26816 11.5444 3.26816 11.1223 3.52851 10.8619L6.39044 8L3.52851 5.13807C3.26816 4.87772 3.26816 4.45561 3.52851 4.19526C3.78886 3.93491 4.21097 3.93491 4.47132 4.19526L7.80466 7.5286C8.06501 7.78895 8.06501 8.21105 7.80466 8.4714L4.47132 11.8047C4.21097 12.0651 3.78886 12.0651 3.52851 11.8047ZM8.19518 10.8619L11.0571 8L8.19518 5.13807C7.93483 4.87772 7.93483 4.45561 8.19518 4.19526C8.45553 3.93491 8.87764 3.93491 9.13799 4.19526L12.4713 7.5286C12.7317 7.78895 12.7317 8.21105 12.4713 8.4714L9.13799 11.8047C8.87764 12.0651 8.45553 12.0651 8.19518 11.8047C7.93483 11.5444 7.93483 11.1223 8.19518 10.8619Z" fill="white"/>
</mask>
<g mask="url(#mask0)">
<rect width="16" height="16" fill="#EB5757"/>
</g>
</svg>
