<svg width="40" height="40" viewBox="0 0 40 40" fill="none" xmlns="http://www.w3.org/2000/svg">
<circle cx="20" cy="20" r="20" fill="#848484"/>
<path d="M21.0001 10C14.9244 10 10 14.1239 10 19.2108C10 21.2019 10.7549 23.0445 12.0375 24.5509C12.3978 24.9738 12.5229 25.0876 12.5229 25.0876C12.916 25.4442 13.1719 26.0866 13.0918 26.5149C13.0116 26.9435 12.9456 27.2936 12.9456 27.2936L12.3518 30.4572C12.2553 30.9716 12.541 31.1527 12.9867 30.8598L15.7027 29.0762L16.8438 28.3268C17.1779 28.1074 17.7739 27.9964 18.1677 28.0808C18.1677 28.0808 19.7581 28.4207 20.9999 28.4207C27.0746 28.4207 32 24.2968 32 19.2113C32.0002 14.1239 27.0751 10 21.0001 10ZM16.2334 20.7558C15.3558 20.7558 14.6445 20.0636 14.6445 19.2108C14.6445 18.3571 15.3558 17.6654 16.2334 17.6654C17.111 17.6654 17.8223 18.3571 17.8223 19.2108C17.8223 20.0636 17.111 20.7558 16.2334 20.7558ZM21.0001 20.7558C20.1226 20.7558 19.4112 20.0636 19.4112 19.2108C19.4112 18.3571 20.1226 17.6654 21.0001 17.6654C21.8777 17.6654 22.589 18.3571 22.589 19.2108C22.589 20.0636 21.8777 20.7558 21.0001 20.7558ZM25.7668 20.7558C24.8893 20.7558 24.1779 20.0636 24.1779 19.2108C24.1779 18.3571 24.8893 17.6654 25.7668 17.6654C26.6444 17.6654 27.3557 18.3571 27.3557 19.2108C27.3557 20.0636 26.6444 20.7558 25.7668 20.7558Z" fill="white"/>
</svg>
