<svg width="40" height="40" viewBox="0 0 40 40" fill="none" xmlns="http://www.w3.org/2000/svg">
<circle cx="20" cy="20" r="20" fill="#4267B2"/>
<path fill-rule="evenodd" clip-rule="evenodd" d="M17.983 19.5752V28.7605C17.983 28.8927 18.0918 29 18.2266 29H21.7047C21.8395 29 21.9489 28.8932 21.9489 28.7605V19.4253H24.4704C24.5973 19.4253 24.7028 19.3296 24.7141 19.2063L24.9566 16.3935C24.9684 16.2541 24.8562 16.134 24.7129 16.134H21.9494V14.1388C21.9494 13.6708 22.3363 13.2919 22.8129 13.2919H24.7558C24.89 13.2919 25 13.1851 25 13.0523V10.2395C25 10.1079 24.8906 10 24.7558 10H21.4723C19.5457 10 17.9835 11.5323 17.9835 13.4224V16.134H16.2442C16.11 16.134 16 16.2408 16 16.3735V19.1863C16 19.318 16.1094 19.4259 16.2442 19.4259H17.9835L17.983 19.5752Z" fill="white"/>
</svg>
