<svg width="22" height="22" viewBox="0 0 22 22" fill="none" xmlns="http://www.w3.org/2000/svg">
<path fill-rule="evenodd" clip-rule="evenodd" d="M2.18726 7.52651L10.4373 1.10984C10.7683 0.852383 11.2318 0.852383 11.5628 1.10984L19.8128 7.52651C20.0361 7.70018 20.1667 7.96721 20.1667 8.25008V18.3334C20.1667 19.8522 18.9355 21.0834 17.4167 21.0834H4.58337C3.06459 21.0834 1.83337 19.8522 1.83337 18.3334V8.25008C1.83337 7.96721 1.96397 7.70018 2.18726 7.52651ZM3.66669 8.69843V18.3334C3.66669 18.8397 4.0771 19.2501 4.58336 19.2501H7.33337V11.0001C7.33337 10.4938 7.74378 10.0834 8.25004 10.0834H13.75C14.2563 10.0834 14.6667 10.4938 14.6667 11.0001V19.2501H17.4167C17.923 19.2501 18.3334 18.8397 18.3334 18.3334V8.69843L11 2.99472L3.66669 8.69843ZM12.8334 19.2501V11.9167H9.16671V19.2501H12.8334Z" fill="black"/>
<mask id="mask0" mask-type="alpha" maskUnits="userSpaceOnUse" x="1" y="0" width="20" height="22">
<path fill-rule="evenodd" clip-rule="evenodd" d="M2.18726 7.52651L10.4373 1.10984C10.7683 0.852383 11.2318 0.852383 11.5628 1.10984L19.8128 7.52651C20.0361 7.70018 20.1667 7.96721 20.1667 8.25008V18.3334C20.1667 19.8522 18.9355 21.0834 17.4167 21.0834H4.58337C3.06459 21.0834 1.83337 19.8522 1.83337 18.3334V8.25008C1.83337 7.96721 1.96397 7.70018 2.18726 7.52651ZM3.66669 8.69843V18.3334C3.66669 18.8397 4.0771 19.2501 4.58336 19.2501H7.33337V11.0001C7.33337 10.4938 7.74378 10.0834 8.25004 10.0834H13.75C14.2563 10.0834 14.6667 10.4938 14.6667 11.0001V19.2501H17.4167C17.923 19.2501 18.3334 18.8397 18.3334 18.3334V8.69843L11 2.99472L3.66669 8.69843ZM12.8334 19.2501V11.9167H9.16671V19.2501H12.8334Z" fill="white"/>
</mask>
<g mask="url(#mask0)">
<rect width="22" height="22" fill="white"/>
</g>
</svg>
