<svg width="14" height="15" viewBox="0 0 14 15" fill="none" xmlns="http://www.w3.org/2000/svg">
<path d="M7 0.0263672C5.13231 0.0263672 3.37538 0.75287 2.05231 2.07492C0.729231 3.39697 0 5.15554 0 7.02637C0 8.89719 0.729231 10.6558 2.05231 11.9778C3.37538 13.2999 5.12923 14.0264 7 14.0264C8.87077 14.0264 10.6246 13.2999 11.9477 11.9778C13.2708 10.6558 14 8.89719 14 7.02637C14 5.15554 13.2708 3.39697 11.9477 2.07492C10.6246 0.75287 8.86769 0.0263672 7 0.0263672ZM7 13.091C3.64923 13.091 0.923077 10.3689 0.923077 7.02637C0.923077 3.68383 3.64923 0.961779 7 0.961779C10.3508 0.961779 13.0769 3.68383 13.0769 7.02637C13.0769 10.3689 10.3508 13.091 7 13.091Z" fill="#797979"/>
<path d="M10.0186 9.05307C8.36616 7.76423 7.40013 5.78562 7.40013 3.69V2.97601C7.40013 2.71721 7.19397 2.5083 6.93859 2.5083C6.6832 2.5083 6.47705 2.71721 6.47705 2.97601V7.24149C6.47705 7.38803 6.53859 7.52523 6.65244 7.61253L9.45551 9.79516C9.53859 9.86064 9.63705 9.89182 9.73551 9.89182C9.87397 9.89182 10.0124 9.82946 10.1047 9.70786C10.2586 9.50518 10.2217 9.21209 10.0186 9.05307Z" fill="#797979"/>
</svg>
