<svg width="18" height="18" viewBox="0 0 18 18" fill="none" xmlns="http://www.w3.org/2000/svg">
    <mask id="mask0" mask-type="alpha" maskUnits="userSpaceOnUse" x="0" y="0" width="18" height="18">
        <path fill-rule="evenodd" clip-rule="evenodd" d="M0 0H17.9559V17.9808H0V0Z" fill="white"/>
    </mask>
    <g mask="url(#mask0)">
        <path fill-rule="evenodd" clip-rule="evenodd" d="M7.62653 13.9117C4.1631 13.9117 1.35538 11.0967 1.35538 7.62405C1.35538 4.15147 4.1631 1.3364 7.62653 1.3364C11.09 1.3364 13.8977 4.15147 13.8977 7.62405C13.8977 11.0967 11.09 13.9117 7.62653 13.9117ZM17.755 16.8068L13.4916 12.5547H13.4691C16.1735 9.31847 15.7493 4.49684 12.5216 1.78521C9.2939 -0.926382 4.48497 -0.501079 1.78051 2.73517C-0.92394 5.97142 -0.499756 10.793 2.72793 13.5046C5.56103 15.8847 9.68853 15.8847 12.5216 13.5046H12.5441L16.7851 17.7794C17.0529 18.0479 17.4872 18.0479 17.755 17.7794C18.0229 17.5107 18.0229 17.0753 17.755 16.8068Z" fill="#F0F1F4"/>
    </g>
</svg>