<svg width="9" height="19" viewBox="0 0 9 19" fill="none" xmlns="http://www.w3.org/2000/svg">
<path fill-rule="evenodd" clip-rule="evenodd" d="M1.98297 9.57522V18.7605C1.98297 18.8927 2.09182 19 2.22661 19H5.70467C5.83946 19 5.94887 18.8932 5.94887 18.7605V9.42532H8.47043C8.59732 9.42532 8.70279 9.32962 8.71407 9.20627L8.95658 6.39346C8.96842 6.25407 8.85618 6.134 8.71293 6.134H5.94943V4.13875C5.94943 3.67078 6.33633 3.29186 6.81289 3.29186H8.75581C8.89003 3.29186 9 3.18511 9 3.05235V0.239543C9 0.107891 8.8906 0 8.75581 0H5.4723C3.54575 0 1.98352 1.53226 1.98352 3.42242V6.134H0.244211C0.109984 6.134 0 6.24079 0 6.37354V9.18635C0 9.318 0.10942 9.42589 0.244211 9.42589H1.98352L1.98297 9.57522Z" fill="#747474"/>
</svg>
