<svg xmlns="http://www.w3.org/2000/svg" width="16" height="16" viewBox="0 0 9 8" fill="none">
    <path d="M8.04936 3.09028L5.67984 2.76895L4.6206 0.765236C4.59167 0.710375 4.54407 0.665964 4.48527 0.638969C4.33782 0.571047 4.15864 0.627649 4.08491 0.765236L3.02567 2.76895L0.656144 3.09028C0.590817 3.09899 0.531089 3.12772 0.485359 3.17126C0.430075 3.22428 0.399611 3.29561 0.400661 3.36958C0.401711 3.44355 0.434189 3.5141 0.490959 3.56574L2.20534 5.12534L1.80031 7.32761C1.79081 7.37883 1.79689 7.43152 1.81785 7.47969C1.83881 7.52786 1.87381 7.56959 1.9189 7.60014C1.96398 7.6307 2.01734 7.64885 2.07291 7.65255C2.12849 7.65625 2.18407 7.64534 2.23334 7.62107L4.35275 6.58133L6.47217 7.62107C6.53003 7.6498 6.59722 7.65938 6.66162 7.64893C6.824 7.62281 6.93319 7.47912 6.9052 7.32761L6.50016 5.12534L8.21455 3.56574C8.26121 3.52307 8.29201 3.46734 8.30134 3.40638C8.32654 3.25399 8.21268 3.11292 8.04936 3.09028Z"
          fill="#909090"/>
</svg>