<svg width="40" height="40" viewBox="0 0 40 40" fill="none" xmlns="http://www.w3.org/2000/svg">
<circle cx="20" cy="20" r="20" fill="#1DA1F2"/>
<path d="M29.9277 13.7974C29.3235 14.0586 28.6595 14.2178 28.0081 14.3231C28.3176 14.2729 28.7733 13.7364 28.9559 13.5193C29.2336 13.1883 29.4651 12.811 29.5948 12.4037C29.6113 12.372 29.6239 12.3323 29.5903 12.3077C29.5493 12.2919 29.522 12.3001 29.489 12.3164C28.7619 12.69 28.0092 12.961 27.2093 13.1524C27.1427 13.1682 27.0933 13.1524 27.0523 13.1126C26.9857 13.0406 26.9231 12.973 26.8526 12.9173C26.5158 12.6431 26.1551 12.4282 25.7483 12.269C25.2146 12.0602 24.6298 11.9718 24.0546 12.0078C23.4948 12.0427 22.9446 12.1943 22.4474 12.4429C21.9495 12.6921 21.5052 13.0395 21.1519 13.4577C20.7849 13.8907 20.5153 14.4016 20.3776 14.9442C20.2445 15.4671 20.2553 15.984 20.3366 16.5129C20.3486 16.6007 20.3412 16.6127 20.2575 16.6007C17.1267 16.1541 14.5312 15.0799 12.4239 12.7789C12.3323 12.6791 12.2828 12.679 12.2077 12.787C11.2855 14.1115 11.7332 16.2392 12.8848 17.285C13.0384 17.4246 13.196 17.5642 13.3666 17.6913C13.3046 17.7033 12.5377 17.6237 11.855 17.285C11.7634 17.2294 11.7179 17.2616 11.7094 17.3614C11.7008 17.5043 11.7133 17.6362 11.7338 17.7911C11.9113 19.1341 12.8813 20.3757 14.2104 20.8605C14.3674 20.9237 14.5421 20.9799 14.7127 21.0077C14.4095 21.0715 14.0983 21.1167 13.2301 21.0519C13.122 21.0317 13.0805 21.084 13.122 21.1827C13.774 22.8873 15.1827 23.3944 16.2375 23.6828C16.3786 23.7068 16.5202 23.7068 16.6613 23.7385C16.6528 23.7505 16.6448 23.7504 16.6363 23.763C16.287 24.2739 15.0734 24.6545 14.5091 24.8432C13.4821 25.1873 12.3636 25.3421 11.2781 25.2396C11.104 25.2151 11.0682 25.2173 11.0209 25.2396C10.9731 25.268 11.0147 25.3078 11.0704 25.3508C11.2912 25.4904 11.5153 25.6137 11.7435 25.7331C12.4336 26.0837 13.1522 26.3618 13.9037 26.5614C17.785 27.5887 22.1572 26.834 25.0713 24.0585C27.3595 21.879 28.1623 18.874 28.1623 15.8651C28.1623 15.7468 28.3074 15.6819 28.3938 15.6197C28.9889 15.1912 29.4623 14.6781 29.906 14.1055C30.0062 13.9768 29.9999 13.8623 29.9999 13.8154C29.9999 13.8067 29.9999 13.7996 29.9999 13.7996C29.9988 13.75 30.0045 13.7642 29.9277 13.7974Z" fill="white"/>
</svg>
