<svg xmlns="http://www.w3.org/2000/svg" width="33" height="48" viewBox="0 0 33 48" fill="none">
    <path d="M4.13923 44.1313L0.381931 34.7381H2.28742L4.38078 40.1191C4.48813 40.3964 4.58206 40.6469 4.66257 40.8705C4.74309 41.0852 4.81465 41.2821 4.87728 41.461C4.9399 41.6399 4.99357 41.8143 5.0383 41.9843C5.09198 42.1543 5.15013 42.3332 5.21275 42.5211H4.83702C4.89964 42.2795 4.96674 42.0425 5.0383 41.8099C5.10987 41.5683 5.19038 41.3134 5.27984 41.045C5.37825 40.7766 5.49455 40.468 5.62874 40.1191L7.5879 34.7381H9.50681L5.72267 44.1313H4.13923ZM10.753 44.1313V37.0596H12.4035V44.1313H10.753ZM11.5581 35.5566C11.2271 35.5566 10.9677 35.4761 10.7798 35.3151C10.6009 35.1451 10.5114 34.9081 10.5114 34.6039C10.5114 34.3176 10.6054 34.085 10.7932 33.9061C10.9811 33.7272 11.2361 33.6377 11.5581 33.6377C11.8981 33.6377 12.1575 33.7227 12.3364 33.8927C12.5243 34.0537 12.6182 34.2908 12.6182 34.6039C12.6182 34.8812 12.5243 35.1093 12.3364 35.2883C12.1486 35.4672 11.8891 35.5566 11.5581 35.5566ZM17.6767 44.2655C16.9342 44.2655 16.2767 44.109 15.7042 43.7959C15.1406 43.4828 14.6977 43.0578 14.3757 42.5211C14.0626 41.9754 13.906 41.3536 13.906 40.6558C13.906 40.1012 13.9955 39.5957 14.1744 39.1395C14.3533 38.6833 14.5993 38.2896 14.9124 37.9586C15.2345 37.6187 15.6147 37.3593 16.0531 37.1803C16.5003 36.9925 16.9879 36.8985 17.5157 36.8985C17.9809 36.8985 18.4148 36.988 18.8174 37.1669C19.2199 37.3458 19.5688 37.5919 19.864 37.905C20.1592 38.2091 20.3829 38.5759 20.535 39.0053C20.696 39.4258 20.772 39.8865 20.7631 40.3875L20.7497 40.9645H15.0198L14.7112 39.8373H19.3675L19.1528 40.0654V39.7702C19.126 39.4929 19.0365 39.2513 18.8844 39.0456C18.7324 38.8309 18.5356 38.6654 18.294 38.5491C18.0614 38.4238 17.802 38.3612 17.5157 38.3612C17.0774 38.3612 16.7061 38.4462 16.4019 38.6162C16.1067 38.7861 15.8831 39.0322 15.731 39.3542C15.5789 39.6673 15.5029 40.0609 15.5029 40.5351C15.5029 40.9913 15.5968 41.3894 15.7847 41.7294C15.9815 42.0693 16.2543 42.3332 16.6032 42.5211C16.9611 42.7 17.3771 42.7895 17.8512 42.7895C18.1822 42.7895 18.4864 42.7358 18.7637 42.6284C19.041 42.5211 19.3407 42.3287 19.6627 42.0514L20.4813 43.192C20.2398 43.4157 19.9624 43.608 19.6493 43.769C19.3452 43.9211 19.0231 44.0419 18.6832 44.1313C18.3432 44.2208 18.0077 44.2655 17.6767 44.2655ZM23.6236 44.1313L21.2485 37.0596L22.9393 37.0461L24.5227 42.0917L24.2275 42.0648L25.9451 38.1197H26.9381L28.696 42.0648L28.3471 42.1051L29.944 37.0596H31.6347L29.2462 44.1313H28.0653L26.2538 39.891L26.5087 39.9178L24.7911 44.1313H23.6236Z"
          fill="white"/>
    <path d="M30.5388 15.5382C29.4199 12.644 27.4775 10.1411 24.9516 8.33876C22.4257 6.53647 19.427 5.51382 16.3262 5.39722C13.2254 5.51382 10.2267 6.53647 7.70082 8.33876C5.17491 10.1411 3.23246 12.644 2.11356 15.5382C2.03799 15.7472 2.03799 15.9761 2.11356 16.1851C3.23246 19.0794 5.17491 21.5823 7.70082 23.3846C10.2267 25.1869 13.2254 26.2095 16.3262 26.3261C19.427 26.2095 22.4257 25.1869 24.9516 23.3846C27.4775 21.5823 29.4199 19.0794 30.5388 16.1851C30.6144 15.9761 30.6144 15.7472 30.5388 15.5382ZM16.3262 24.4235C11.2842 24.4235 5.95687 20.6848 4.0257 15.8617C5.95687 11.0385 11.2842 7.29985 16.3262 7.29985C21.3682 7.29985 26.6955 11.0385 28.6267 15.8617C26.6955 20.6848 21.3682 24.4235 16.3262 24.4235Z"
          fill="white"/>
    <path d="M16.3262 10.1538C15.1973 10.1538 14.0937 10.4886 13.155 11.1158C12.2164 11.743 11.4848 12.6344 11.0528 13.6774C10.6208 14.7204 10.5077 15.868 10.728 16.9753C10.9482 18.0825 11.4918 19.0995 12.2901 19.8978C13.0884 20.696 14.1054 21.2397 15.2126 21.4599C16.3198 21.6802 17.4675 21.5671 18.5105 21.1351C19.5535 20.7031 20.4449 19.9715 21.0721 19.0328C21.6993 18.0942 22.0341 16.9906 22.0341 15.8617C22.0341 14.3479 21.4327 12.896 20.3623 11.8256C19.2918 10.7552 17.84 10.1538 16.3262 10.1538ZM16.3262 19.667C15.5736 19.667 14.8379 19.4438 14.2121 19.0257C13.5863 18.6075 13.0986 18.0132 12.8106 17.3179C12.5226 16.6226 12.4472 15.8575 12.594 15.1193C12.7409 14.3812 13.1033 13.7031 13.6355 13.171C14.1676 12.6388 14.8457 12.2764 15.5838 12.1296C16.322 11.9827 17.0871 12.0581 17.7824 12.3461C18.4777 12.6341 19.072 13.1218 19.4901 13.7476C19.9083 14.3734 20.1314 15.1091 20.1314 15.8617C20.1314 16.8709 19.7305 17.8388 19.0169 18.5524C18.3033 19.266 17.3354 19.667 16.3262 19.667Z"
          fill="white"/>
</svg>